<svg width="28" height="25" viewBox="0 0 28 25" fill="none" xmlns="http://www.w3.org/2000/svg">
<path d="M14 5.25001C14 4.14494 14.4214 3.08513 15.1716 2.30373C15.9217 1.52233 16.9391 1.08334 18 1.08334H26C26.2652 1.08334 26.5196 1.19309 26.7071 1.38844C26.8946 1.58379 27 1.84874 27 2.12501V18.7917C27 19.0679 26.8946 19.3329 26.7071 19.5282C26.5196 19.7236 26.2652 19.8333 26 19.8333H18C16.9391 19.8333 15.9217 20.2723 15.1716 21.0537C14.4214 21.8351 14 22.8949 14 24" stroke="#3D3C3C" stroke-width="1.5" stroke-linecap="round" stroke-linejoin="round"/>
<path d="M1 18.7917C1 19.0679 1.10536 19.3329 1.29289 19.5282C1.48043 19.7236 1.73478 19.8333 2 19.8333H10C11.0609 19.8333 12.0783 20.2723 12.8284 21.0537C13.5786 21.8351 14 22.8949 14 24V5.25001C14 4.14494 13.5786 3.08513 12.8284 2.30373C12.0783 1.52233 11.0609 1.08334 10 1.08334H2C1.73478 1.08334 1.48043 1.19309 1.29289 1.38844C1.10536 1.58379 1 1.84874 1 2.12501V18.7917Z" stroke="#3D3C3C" stroke-width="1.5" stroke-linecap="round" stroke-linejoin="round"/>
</svg>
