<svg width="37" height="28" viewBox="0 0 37 28" fill="none" xmlns="http://www.w3.org/2000/svg">
<path d="M14.75 24C14.75 24.4142 14.4142 24.75 14 24.75C13.5858 24.75 13.25 24.4142 13.25 24C13.25 23.5858 13.5858 23.25 14 23.25C14.4142 23.25 14.75 23.5858 14.75 24Z" fill="#3D3C3C" stroke="#3D3C3C" stroke-width="2"/>
<path d="M27.75 24C27.75 24.4142 27.4142 24.75 27 24.75C26.5858 24.75 26.25 24.4142 26.25 24C26.25 23.5858 26.5858 23.25 27 23.25C27.4142 23.25 27.75 23.5858 27.75 24Z" fill="#3D3C3C" stroke="#3D3C3C" stroke-width="2"/>
<g filter="url(#filter0_d_1002_423)">
<path d="M9.2875 6H31.7125L28.4125 17.55C28.2948 17.9692 28.0426 18.3381 27.6948 18.6001C27.3471 18.862 26.9229 19.0025 26.4875 19H14.5125C14.0771 19.0025 13.6529 18.862 13.3052 18.6001C12.9574 18.3381 12.7052 17.9692 12.5875 17.55L8.0625 1.725C8.0027 1.51594 7.8764 1.33207 7.70271 1.20125C7.52903 1.07042 7.31744 0.999771 7.1 1H5" stroke="#3D3C3C" stroke-width="2" stroke-linecap="round" stroke-linejoin="round" shape-rendering="crispEdges"/>
</g>
<defs>
<filter id="filter0_d_1002_423" x="0" y="0" width="36.7125" height="28" filterUnits="userSpaceOnUse" color-interpolation-filters="sRGB">
<feFlood flood-opacity="0" result="BackgroundImageFix"/>
<feColorMatrix in="SourceAlpha" type="matrix" values="0 0 0 0 0 0 0 0 0 0 0 0 0 0 0 0 0 0 127 0" result="hardAlpha"/>
<feOffset dy="4"/>
<feGaussianBlur stdDeviation="2"/>
<feComposite in2="hardAlpha" operator="out"/>
<feColorMatrix type="matrix" values="0 0 0 0 0 0 0 0 0 0 0 0 0 0 0 0 0 0 0.25 0"/>
<feBlend mode="normal" in2="BackgroundImageFix" result="effect1_dropShadow_1002_423"/>
<feBlend mode="normal" in="SourceGraphic" in2="effect1_dropShadow_1002_423" result="shape"/>
</filter>
</defs>
</svg>
